<?xml version="1.0" encoding="UTF-8" standalone="no"?>
<svg
   xmlns:dc="http://purl.org/dc/elements/1.1/"
   xmlns:cc="http://creativecommons.org/ns#"
   xmlns:rdf="http://www.w3.org/1999/02/22-rdf-syntax-ns#"
   xmlns:svg="http://www.w3.org/2000/svg"
   xmlns="http://www.w3.org/2000/svg"
   xmlns:sodipodi="http://sodipodi.sourceforge.net/DTD/sodipodi-0.dtd"
   xmlns:inkscape="http://www.inkscape.org/namespaces/inkscape"
   height="100px"
   width="100px"
   fill="#000000"
   version="1.1"
   x="0px"
   y="0px"
   viewBox="0 0 100 100"
   enable-background="new 0 0 100 100"
   xml:space="preserve"
   id="svg16"
   sodipodi:docname="headphones.svg"
   inkscape:version="1.0.1 (3bc2e813f5, 2020-09-07)"><metadata
     id="metadata22"><rdf:RDF><cc:Work
         rdf:about=""><dc:format>image/svg+xml</dc:format><dc:type
           rdf:resource="http://purl.org/dc/dcmitype/StillImage" /><dc:title /></cc:Work></rdf:RDF></metadata><defs
     id="defs20" /><sodipodi:namedview
     pagecolor="#ffffff"
     bordercolor="#666666"
     borderopacity="1"
     objecttolerance="10"
     gridtolerance="10"
     guidetolerance="10"
     inkscape:pageopacity="0"
     inkscape:pageshadow="2"
     inkscape:window-width="1600"
     inkscape:window-height="837"
     id="namedview18"
     showgrid="false"
     inkscape:zoom="4.7376154"
     inkscape:cx="43.570416"
     inkscape:cy="54.760365"
     inkscape:window-x="-8"
     inkscape:window-y="-8"
     inkscape:window-maximized="1"
     inkscape:current-layer="svg16"
     inkscape:document-rotation="0" /><path
     d="M15.281,66.527c-3.912-14.854-4.723-30.193,4.221-43.656C25.92,13.211,37.953,8.5,50.002,8.5  c12.957,0,23.095,4.306,29.938,13.516c9.817,13.212,8.66,29.667,4.718,44.511c-1.049,3.947,5.48,5.623,6.532,1.679  c4.446-16.748,5.107-35.397-5.4-50.375C78.008,6.744,64.612,0.327,50.527,0.011c-14.232-0.32-27.35,6.45-35.649,16.987  C3.384,31.587,4.354,51.523,8.751,68.206C9.79,72.154,16.323,70.479,15.281,66.527L15.281,66.527z"
     id="path2" /><polygon
     points="73.271,93.17 79.555,94.307 84.588,70.202 78.301,69.063 "
     id="polygon4" /><path
     d="M60.373,94.832c-0.48,2.3,1.84,4.65,5.178,5.258l0,0c3.338,0.604,6.435-0.77,6.916-3.07l6.876-32.961  c0.484-2.301-1.838-4.656-5.174-5.262l0,0c-3.338-0.604-6.437,0.771-6.912,3.071L60.373,94.832z"
     id="path6" /><path
     d="M82.131,89.794c-0.188,0.901,0.304,1.743,1.097,1.886l1.481,0.27c0.792,0.145,1.588-0.467,1.775-1.363l4.413-21.138  c0.187-0.899-0.305-1.739-1.098-1.886l-1.479-0.271c-0.795-0.144-1.592,0.472-1.779,1.366L82.131,89.794z"
     id="path8" /><polygon
     points="26.713,93.168 20.429,94.307 15.397,70.202 21.683,69.063 "
     id="polygon10" /><path
     d="M39.608,94.83c0.481,2.302-1.837,4.65-5.174,5.26l0,0c-3.338,0.604-6.438-0.77-6.917-3.07l-6.879-32.961  c-0.479-2.301,1.837-4.656,5.175-5.262l0,0c3.34-0.604,6.437,0.771,6.917,3.071L39.608,94.83z"
     id="path12" /><path
     d="M17.853,89.794c0.185,0.899-0.306,1.743-1.099,1.883l-1.479,0.271c-0.793,0.145-1.59-0.467-1.777-1.361L9.085,69.445  c-0.188-0.896,0.306-1.738,1.1-1.885l1.478-0.269c0.796-0.146,1.591,0.467,1.777,1.364L17.853,89.794z"
     id="path14" /><path
     style="fill:#999999;stroke-width:0.211077"
     d="m 14.132888,91.409017 c -0.294446,-0.294446 -0.535356,-0.620555 -0.535356,-0.724687 0,-0.454256 -4.4939214,-21.700502 -5.0536667,-23.892596 C 4.8719921,52.41181 4.9398305,38.745604 8.7345602,28.375783 10.149335,24.509644 12.531614,20.242158 15.156367,16.872106 16.651008,14.953062 20.00711,11.618448 22.251675,9.8222279 31.181203,2.6763429 42.633257,-0.78526505 53.732501,0.30653229 70.286289,1.9348761 83.487023,11.041923 89.804038,25.191907 c 5.05932,11.332771 5.654412,24.960019 1.784372,40.861059 -0.395566,1.62529 -1.730406,7.799282 -2.96631,13.719982 -1.235905,5.9207 -2.381409,11.02474 -2.545566,11.342311 -0.378473,0.732185 -0.969131,0.869951 -2.288826,0.533856 -1.917182,-0.488263 -1.940586,0.07522 0.475971,-11.459882 l 2.121316,-10.125811 -0.457931,-0.392755 c -0.739397,-0.634158 -1.193819,-1.459217 -1.19531,-2.170226 -8.44e-4,-0.36481 0.277281,-1.83707 0.617879,-3.271688 C 90.136458,44.066373 87.308755,28.841408 76.825509,18.333025 71.352524,12.846918 64.908453,9.8578959 56.129477,8.7333666 53.264542,8.3663871 46.441449,8.424267 43.675955,8.8390094 30.726126,10.7811 21.756924,17.017044 16.661554,27.621094 c -2.987091,6.216479 -4.189295,11.844192 -4.196831,19.64605 -0.0056,5.75541 0.541177,10.109725 2.109912,16.803746 0.868452,3.705816 0.849551,4.102554 -0.247717,5.199823 l -0.723266,0.723267 2.121835,10.156983 c 2.257735,10.807519 2.268646,10.910472 1.199096,11.31454 -0.262634,0.09922 -0.877752,0.247559 -1.366928,0.329636 -0.778282,0.130587 -0.956303,0.08234 -1.424767,-0.386122 z"
     id="path24" /><path
     style="fill:#999999;stroke-width:0.211077"
     d="m 31.222432,99.949246 c -1.523382,-0.423897 -2.812688,-1.271596 -3.289721,-2.162941 -0.322257,-0.60214 -7.158573,-33.483835 -7.158573,-34.4317 0,-1.517563 1.196907,-2.9223 3.316929,-3.892878 2.938744,-1.345402 7.06645,-0.53548 8.17261,1.603596 0.516171,0.998166 7.353227,34.168654 7.205312,34.957112 -0.381607,2.034137 -3.132785,3.863224 -6.045222,4.019095 -0.862458,0.0462 -1.853058,0.005 -2.201335,-0.09228 z"
     id="path26" /><path
     style="fill:#999999;stroke-width:0.211077"
     d="m 20.469992,93.833348 c -0.139715,-0.461179 -4.700325,-22.367673 -4.793397,-23.024665 -0.07257,-0.512278 -0.02235,-0.530615 2.934007,-1.071385 1.654314,-0.302602 3.007843,-0.526923 3.007843,-0.49849 0,0.02843 1.092321,5.291211 2.427381,11.695062 1.33506,6.40385 2.427382,11.766018 2.427382,11.915927 0,0.151356 -0.351993,0.329817 -0.791538,0.401309 -0.435345,0.07081 -1.762865,0.307376 -2.950043,0.525703 -1.970318,0.362347 -2.167496,0.367278 -2.261635,0.05654 z"
     id="path28" /><path
     style="fill:#999999;stroke-width:0.211077"
     d="m 64.896104,99.803939 c -2.341711,-0.629323 -4.439556,-2.609151 -4.439556,-4.189804 0,-1.01458 6.914144,-33.809835 7.275278,-34.50819 1.039631,-2.010425 4.285936,-2.857775 7.337516,-1.915238 2.372585,0.732817 3.937021,2.207835 4.108525,3.873696 0.13309,1.292745 -6.767754,34.186652 -7.34092,34.991589 -0.600471,0.843285 -1.395518,1.355078 -2.711797,1.745661 -1.393258,0.413427 -2.696575,0.414127 -4.229046,0.0023 z"
     id="path30" /><path
     style="fill:#666666;stroke-width:0.211077"
     d="M 76.377039,93.61504 73.40617,93.070777 75.673336,82.200329 c 1.246942,-5.978746 2.372801,-11.350662 2.501908,-11.937592 l 0.234741,-1.067144 2.949112,0.52724 c 2.470632,0.441697 2.949113,0.58733 2.949113,0.897609 0,0.487634 -4.622447,22.773844 -4.813157,23.205675 -0.131767,0.298367 -0.457618,0.276308 -3.118014,-0.211077 z"
     id="path32" /><path
     style="fill:#666666;stroke-width:0.211077"
     d="M 64.746507,99.626925 C 63.503799,99.238352 62.548818,98.603828 61.509103,97.475871 L 60.610777,96.5013 60.731281,95.102654 c 0.14572,-1.69133 5.990287,-29.780309 6.897559,-33.149661 0.288527,-1.071507 0.911682,-1.827001 1.976726,-2.396523 0.740195,-0.395813 1.20996,-0.469034 3.009171,-0.469034 2.022081,0 2.206196,0.0381 3.569642,0.738768 0.843873,0.43366 1.706823,1.074329 2.089485,1.55127 0.590898,0.736481 0.649408,0.943847 0.62535,2.216305 -0.02771,1.465758 -1.977417,11.426556 -4.509633,23.03916 -2.466359,11.310587 -2.460472,11.289065 -3.2865,12.014327 -1.332113,1.169609 -4.290782,1.625594 -6.356574,0.979659 z"
     id="path34" /><path
     style="fill:#666666;stroke-width:0.211077"
     d="M 14.1411,91.294168 C 13.892444,91.019407 13.277241,88.496117 12.224119,83.431563 10.279346,74.078986 9.5708697,70.781346 8.535787,66.264042 6.4902551,57.336937 6.1042352,54.20175 6.1058342,46.528375 6.1072081,39.935669 6.311485,37.934888 7.4793132,33.075907 9.9540988,22.779069 16.399676,13.692228 25.509509,7.6573129 36.153575,0.60602603 48.617094,-1.4455434 61.287118,1.7681051 73.818165,4.9465031 83.817351,12.998556 89.160689,24.213875 c 2.151958,4.516823 3.432379,8.772175 4.250275,14.125389 0.372124,2.435588 0.464052,3.994974 0.476544,8.083573 0.02096,6.862005 -0.531345,11.385874 -2.383718,19.52459 -0.462395,2.031613 -1.66004,7.540714 -2.661434,12.242446 -2.631315,12.354536 -2.80406,13.049704 -3.310058,13.320505 -0.511835,0.273927 -2.057157,0.08088 -2.614416,-0.326593 -0.595658,-0.435556 -0.457621,-1.651277 0.976905,-8.603672 0.701832,-3.401415 1.577211,-7.641502 1.945286,-9.422415 0.60887,-2.945976 0.638079,-3.255454 0.32386,-3.4313 -0.573871,-0.321155 -1.222493,-1.566396 -1.222493,-2.346974 0,-0.403965 0.373722,-2.482411 0.830494,-4.618773 2.211564,-10.343684 2.502805,-18.17572 0.961215,-25.848816 C 86.006906,33.297036 85.153532,30.815781 83.470675,27.425939 81.652482,23.763484 79.480326,20.827612 76.357181,17.811391 71.185083,12.816368 65.762135,10.218164 57.597948,8.8236042 54.662798,8.3222389 46.046611,8.3255334 43.05179,8.8291661 29.369236,11.130132 20.570399,17.859155 15.564652,29.850304 c -2.203567,5.278592 -3.066273,9.914072 -3.103943,16.678071 -0.03836,6.888113 0.302873,9.985754 1.871325,16.987411 0.408669,1.824321 0.743034,3.55143 0.743034,3.838018 0,0.649548 -0.313417,1.271356 -1.025386,2.034329 l -0.551652,0.591169 0.798983,3.841441 c 3.078785,14.802522 3.381993,16.487646 3.072748,17.077264 -0.200476,0.38223 -1.40303,0.797635 -2.314747,0.799594 -0.301261,6.33e-4 -0.712522,-0.180897 -0.913914,-0.403433 z"
     id="path36" /><path
     style="fill:#666666;stroke-width:0.211077"
     d="M 30.158379,99.400178 C 28.246456,98.4745 28.09069,98.186728 27.132273,93.809545 24.5641,82.080459 20.985215,64.35663 20.985215,63.36727 c 0,-1.490389 0.920963,-2.631455 2.955073,-3.661315 0.924733,-0.468187 1.52594,-0.605752 2.955073,-0.676161 2.981485,-0.146888 4.920187,0.864995 5.481415,2.860963 0.612995,2.180067 5.100869,23.676693 6.352512,30.42811 l 0.682363,3.680702 -0.478268,0.901544 c -1.326492,2.500463 -6.014522,3.835587 -8.775004,2.499065 z"
     id="path38" /><path
     style="fill:#666666;stroke-width:0.211077"
     d="M 20.585814,93.550567 C 20.485946,93.286683 19.489461,88.653998 18.371403,83.255713 17.253345,77.857427 16.204055,72.823249 16.039647,72.06865 15.87524,71.314051 15.812896,70.621934 15.901105,70.530612 c 0.138422,-0.143306 2.4097,-0.644703 4.880804,-1.077464 l 0.746538,-0.13074 2.256526,10.92434 c 1.241089,6.008386 2.316747,11.318265 2.390351,11.799729 0.155733,1.01869 0.284256,0.945991 -2.551651,1.443353 -1.04483,0.183242 -2.114923,0.379824 -2.377986,0.436848 -0.356921,0.07737 -0.524374,-0.01807 -0.659873,-0.376111 z"
     id="path40"
     inkscape:export-filename="D:\Images\InkscapeProjects\Exports\nounHeadphonesLighter.png"
     inkscape:export-xdpi="96"
     inkscape:export-ydpi="96" /><path
     style="fill:#999999;stroke-width:0.211077"
     d="m 30.272587,99.292262 c -1.388967,-0.647919 -1.860146,-1.18807 -2.311731,-2.650135 -0.364162,-1.179019 -2.442625,-10.769239 -4.250712,-19.613175 -0.379749,-1.857475 -0.762936,-3.407109 -0.851527,-3.443633 -0.08859,-0.03652 -0.117896,-0.179 -0.06512,-0.316615 0.05277,-0.137615 -0.290639,-2.244883 -0.763138,-4.682818 -1.040571,-5.368993 -1.066755,-5.987379 -0.296288,-6.997513 0.687173,-0.90093 2.202331,-1.899089 3.353091,-2.208957 1.249521,-0.336461 4.28503,-0.149395 5.250112,0.323543 1.413363,0.692617 1.783596,1.430182 2.623319,5.226082 0.419247,1.895173 0.841409,3.477627 0.938138,3.516565 0.09673,0.03894 0.122806,0.156656 0.05795,0.261594 -0.172151,0.278546 0.346263,2.728221 0.577361,2.728221 0.10784,0 0.137553,0.09468 0.06603,0.21041 -0.136678,0.22115 2.189331,11.849608 2.406735,12.032035 0.06918,0.05805 0.15351,0.532969 0.18741,1.055384 0.0339,0.522414 0.138825,0.976905 0.233168,1.009978 0.09434,0.03307 0.12677,0.294279 0.07206,0.580461 -0.0601,0.314386 -0.0012,0.520327 0.148673,0.520327 0.136477,0 0.190915,0.09259 0.120972,0.205762 -0.098,0.158565 0.903345,5.977931 1.468365,8.533491 0.205831,0.930969 -1.427941,2.757219 -3.160262,3.532581 -1.553949,0.695525 -4.499838,0.785056 -5.804608,0.176412 z"
     id="path22" /><path
     style="fill:#999999;stroke-width:0.211077"
     d="m 21.253396,93.85129 c -0.593235,-0.0882 -0.550979,0.07998 -3.378062,-13.445112 -0.194129,-0.928737 -0.429275,-1.720472 -0.522546,-1.75941 -0.09327,-0.03894 -0.118155,-0.154012 -0.0553,-0.255718 0.06286,-0.101706 -0.228278,-1.86476 -0.646969,-3.917898 -0.555482,-2.723925 -0.695282,-3.773752 -0.517185,-3.883821 0.361848,-0.223635 3.708548,-0.899001 4.585177,-0.925292 l 0.759238,-0.02277 0.743992,3.588303 c 0.409196,1.973567 0.821382,3.620162 0.915968,3.6591 0.09459,0.03894 0.11815,0.15789 0.05236,0.264335 -0.147727,0.239027 0.988081,5.760531 1.203895,5.852498 0.08571,0.03652 0.112905,0.179 0.06044,0.316615 -0.05247,0.137614 0.285316,2.135554 0.750626,4.439865 0.46531,2.304312 0.846018,4.40766 0.846018,4.674104 0,0.446018 -0.163257,0.514693 -2.057998,0.865722 -1.131898,0.209701 -2.105489,0.434865 -2.163535,0.500362 -0.05805,0.0655 -0.317303,0.0876 -0.576125,0.04912 z"
     id="path25" /><path
     style="fill:#999999;stroke-width:0.211077"
     d="m 14.283509,91.244943 c -0.133518,-0.133518 -0.407343,-0.940887 -0.608501,-1.794151 -0.201158,-0.853267 -0.448964,-1.551393 -0.550681,-1.551393 -0.101717,0 -0.127137,-0.09352 -0.05649,-0.207836 0.150438,-0.243414 -0.703153,-4.433078 -0.972211,-4.771886 -0.100675,-0.126773 -0.135405,-0.278138 -0.07718,-0.336363 0.143521,-0.143522 -0.530558,-3.38487 -0.764073,-3.674093 -0.102355,-0.126773 -0.134531,-0.282066 -0.0715,-0.345096 C 11.2459,78.501098 10.386456,74.263432 9.2729946,69.147094 6.6011271,56.869897 6.4205839,55.622227 6.2748619,48.428065 6.1469897,42.115132 6.3526026,38.754775 7.0735039,35.375754 8.9125919,26.755548 12.397322,20.037445 18.124349,14.071173 21.928268,10.108345 25.353716,7.5845094 30.378125,5.0427136 41.50939,-0.58847566 54.661865,-1.07677 66.788848,3.6909416 c 9.878858,3.883864 17.769066,11.1804244 22.258328,20.5836454 1.927827,4.038034 3.513055,9.184851 4.123695,13.388569 0.143344,0.986783 0.309056,1.936628 0.368251,2.110767 0.05919,0.174138 0.08923,0.815283 0.06674,1.424767 -0.02249,0.609484 0.03724,1.108041 0.132725,1.107906 0.238141,-4.23e-4 -0.03573,9.965376 -0.343639,12.504212 -0.13712,1.130622 -0.194972,2.143591 -0.128558,2.251046 0.06641,0.107457 0.04628,0.227233 -0.04473,0.266172 -0.167835,0.07181 -0.955962,4.273806 -0.983222,5.242175 -0.0082,0.290231 -0.07264,0.575184 -0.143266,0.63323 -0.221289,0.18187 -5.282202,23.84641 -5.146697,24.06566 0.07075,0.114486 0.04642,0.208155 -0.05408,0.208155 -0.1005,0 -0.336739,0.641145 -0.524977,1.424768 -0.641646,2.67112 -0.626575,2.65191 -1.991869,2.538688 -2.027772,-0.168158 -2.041802,-0.266883 -0.886518,-6.238305 0.343135,-1.77358 0.571796,-3.308966 0.508137,-3.411967 -0.06366,-0.103002 -0.03591,-0.219132 0.06166,-0.258071 0.233077,-0.09301 1.160896,-4.537272 1.001187,-4.795687 -0.06776,-0.109646 -0.04416,-0.231213 0.05245,-0.270153 0.18202,-0.07336 1.304939,-5.425974 1.304665,-6.218945 -8.5e-5,-0.246991 -0.148894,-0.57252 -0.330688,-0.723393 -0.546066,-0.453197 -0.985559,-1.49197 -0.970642,-2.294182 0.0077,-0.415184 0.355708,-2.464601 0.773304,-4.55426 0.417597,-2.089658 0.716095,-3.965602 0.66333,-4.168763 -0.05276,-0.203162 -0.0039,-0.369385 0.108647,-0.369385 0.112521,0 0.184015,-0.166222 0.158876,-0.369384 -0.02514,-0.203161 0.01334,-0.511861 0.08549,-0.685999 0.215824,-0.520857 0.773697,-5.888473 0.800732,-7.704298 0.03854,-2.588547 -0.0683,-6.34806 -0.230954,-8.126451 -0.09842,-1.076153 -0.698676,-4.783326 -0.80161,-4.950754 -0.06814,-0.110843 -0.15061,-0.445524 -0.183257,-0.743735 -0.342685,-3.130241 -3.58444,-10.168943 -6.246087,-13.561886 -2.226772,-2.838588 -6.388214,-6.900242 -6.924872,-6.758822 -0.110138,0.02902 -0.200249,-0.03868 -0.200249,-0.150443 0,-0.255604 -2.516316,-1.977913 -2.889757,-1.977913 -0.152016,0 -0.276392,-0.07779 -0.276392,-0.172859 0,-0.258669 -2.51786,-1.479617 -2.752385,-1.334673 -0.111478,0.0689 -0.202689,0.03499 -0.202689,-0.07535 0,-0.261383 -1.656865,-0.924218 -1.913604,-0.765545 -0.108438,0.06702 -0.197162,0.03208 -0.197162,-0.07764 0,-0.367688 -6.899541,-2.0876702 -7.480384,-1.8647798 -0.152906,0.058676 -0.37807,0.00662 -0.500363,-0.1156696 -0.141837,-0.1418367 -2.042863,-0.2314048 -5.249869,-0.2473512 -5.63817,-0.028035 -8.808258,0.136871 -9.221327,0.4796877 -0.152701,0.1267307 -0.33367,0.174389 -0.402152,0.1059077 -0.183955,-0.1839564 -3.530487,0.5785246 -3.530487,0.8043942 0,0.1061504 -0.09732,0.1328501 -0.216279,0.059333 -0.375447,-0.2320389 -4.214692,1.151668 -7.065865,2.546616 -2.886074,1.412025 -5.842417,3.465084 -7.987664,5.547106 -2.017566,1.958106 -5.486062,6.613236 -5.486062,7.362945 0,0.149467 -0.07645,0.271759 -0.169894,0.271759 -0.380621,0 -3.246332,6.617821 -3.022524,6.979948 0.06685,0.108162 0.01079,0.196658 -0.124576,0.196658 -0.135364,0 -0.191443,0.142477 -0.12462,0.316615 0.06682,0.174138 0.04448,0.316615 -0.04966,0.316615 -0.328807,0 -1.526798,5.651463 -1.431801,6.754453 0.025,0.29023 -0.03975,0.587705 -0.143881,0.661052 -0.425055,0.299406 -0.21472,14.75433 0.224877,15.454289 0.08397,0.133705 0.126072,0.404932 0.09356,0.602726 -0.07622,0.463678 1.644663,8.910795 1.829521,8.980376 0.0769,0.02894 0.122945,0.408883 0.102319,0.844307 -0.02063,0.435421 -0.04437,0.940802 -0.05277,1.123067 -0.0084,0.182265 -0.348136,0.720274 -0.754975,1.195572 l -0.739708,0.864183 0.880792,4.292419 c 0.484436,2.360832 0.960373,4.324279 1.057638,4.363219 0.09727,0.03894 0.124655,0.155242 0.06087,0.258455 -0.06379,0.103212 0.312762,2.350982 0.836779,4.995042 0.524017,2.644062 1.014195,5.297849 1.089284,5.897304 0.132545,1.058145 0.117647,1.099684 -0.510997,1.424768 -0.755168,0.390513 -2.165378,0.44214 -2.515429,0.09209 z"
     id="path27" /><path
     style="fill:#999999;stroke-width:0.211077"
     d=""
     id="path29" /><path
     style="fill:#999999;stroke-width:0.211077"
     d="m 75.701791,93.396237 c -1.076627,-0.203903 -1.997361,-0.410587 -2.046075,-0.459301 -0.0763,-0.0763 4.716291,-23.417023 4.837397,-23.558953 0.05741,-0.06728 2.11698,0.289374 4.073715,0.705449 1.369764,0.291264 1.530305,0.377096 1.530305,0.81817 0,0.271023 -0.430458,2.562764 -0.956573,5.092757 -0.526116,2.529993 -0.91139,4.717736 -0.856165,4.86165 0.05522,0.143915 0.03012,0.291546 -0.05579,0.328069 -0.08591,0.03652 -0.705533,2.67848 -1.376941,5.871015 -0.671407,3.192534 -1.27097,6.018323 -1.332361,6.27953 -0.09468,0.402842 -0.244297,0.471691 -0.985813,0.453634 -0.480807,-0.01171 -1.755071,-0.18812 -2.831699,-0.39202 z"
     id="path31" /><path
     style="fill:#b3b3b3;stroke-width:0.211077"
     d="m 64.291482,99.363084 c -0.531395,-0.187892 -1.485078,-0.857222 -2.277234,-1.598245 l -1.362942,-1.274964 0.128705,-0.970781 c 0.07079,-0.533929 0.83771,-4.512562 1.704272,-8.841406 0.866562,-4.328847 1.524108,-7.95389 1.461214,-8.055655 -0.06289,-0.101765 -0.03118,-0.216885 0.07049,-0.255824 0.22051,-0.08446 1.97063,-8.380563 1.819518,-8.625068 -0.05757,-0.09314 -0.02861,-0.201213 0.06435,-0.240151 0.213542,-0.08945 1.137186,-4.378132 0.993113,-4.611247 -0.05871,-0.095 -0.01075,-0.204718 0.106581,-0.243828 0.11733,-0.03911 0.236653,-0.474161 0.265161,-0.96678 0.02851,-0.492618 0.111199,-0.896162 0.183756,-0.896764 0.07256,-5.91e-4 0.192077,-0.301861 0.265598,-0.669465 0.193692,-0.968464 1.111247,-2.062158 2.110896,-2.516117 0.640505,-0.290865 1.368008,-0.395219 2.7685,-0.397117 1.597928,-0.0022 2.083856,0.08315 3.059079,0.537084 2.228093,1.037104 3.167682,2.082625 3.167682,3.524816 0,0.391784 -0.194004,1.789743 -0.43112,3.106575 -0.237117,1.316833 -0.382575,2.520751 -0.32324,2.675374 0.05933,0.154623 0.0048,0.281133 -0.121178,0.281133 -0.130511,0 -0.18566,0.227027 -0.128184,0.527692 0.05548,0.29023 0.008,0.527691 -0.105538,0.527691 -0.113528,0 -0.16102,0.237462 -0.105539,0.527692 0.05548,0.29023 0.008,0.527692 -0.105538,0.527692 -0.113527,0 -0.161019,0.237461 -0.105538,0.527691 0.05548,0.290231 0.008,0.527692 -0.105539,0.527692 -0.113527,0 -0.161019,0.237461 -0.105538,0.527691 0.05548,0.290231 0.008,0.527692 -0.105538,0.527692 -0.113527,0 -0.161653,0.234148 -0.106946,0.520328 0.05471,0.28618 0.0398,0.547388 -0.03313,0.580461 -0.196352,0.08905 -3.215761,14.506637 -3.083034,14.721392 0.06241,0.100973 0.0097,0.218184 -0.117172,0.260467 -0.12685,0.04228 -0.246172,0.477289 -0.265161,0.966678 -0.01899,0.489392 -0.09092,0.890338 -0.159844,0.890995 -0.06892,6.33e-4 -0.296478,0.832309 -0.505675,1.848115 -0.559425,2.716436 -1.146582,4.528855 -1.640444,5.063683 -1.108972,1.200956 -4.758444,1.713104 -6.874843,0.964778 z"
     id="path33" /><path
     style="fill:#b3b3b3;stroke-width:0.211077"
     d="m 75.4467,93.247839 c -0.868652,-0.170698 -1.606447,-0.337442 -1.639546,-0.370541 -0.05736,-0.05736 3.229473,-16.361616 4.237249,-21.018777 0.361051,-1.668495 0.567369,-2.232302 0.8358,-2.283997 0.560458,-0.107935 4.654955,0.78442 4.925288,1.073417 0.184439,0.197172 0.01866,1.429919 -0.687801,5.114551 -0.511947,2.67012 -1.160326,5.8521 -1.440843,7.071068 -0.280517,1.218967 -0.913896,4.139741 -1.407508,6.490607 l -0.897478,4.274302 -1.172898,-0.02014 C 77.553869,93.567251 76.315351,93.418537 75.4467,93.247837 Z"
     id="path35" /><path
     style="fill:#b3b3b3;stroke-width:0.211077"
     d="M 14.265456,90.907242 C 13.984931,90.365387 13.238633,87.608776 12.879696,85.788633 12.707992,84.917942 12.332942,83.113236 12.04625,81.778177 9.0915588,68.018845 7.1449428,58.499702 6.8018117,56.132363 6.6133347,54.832017 6.527793,51.735406 6.5306777,46.317299 6.5348542,38.472677 6.5401279,38.377397 7.1206491,35.657928 9.3294455,25.310756 14.092004,17.283774 21.935059,10.689202 26.456334,6.8876379 32.635615,3.650856 38.2935,2.1204543 48.72861,-0.70213991 59.516314,0.31490215 69.474781,5.0601605 78.079553,9.1603756 84.635729,15.617344 88.755082,24.048712 c 2.1305,4.360643 3.339191,8.186458 4.355767,13.787113 0.510099,2.810304 0.559689,3.541474 0.532298,7.848244 -0.03642,5.726282 -0.350548,10.380353 -0.883291,13.086752 -0.217096,1.102876 -0.457074,2.432659 -0.533283,2.955074 -0.07621,0.522414 -0.365905,1.899689 -0.643769,3.060611 -0.449652,1.87866 -2.565453,11.663055 -4.290511,19.841205 -0.65633,3.111521 -1.161955,5.10266 -1.541017,6.068454 -0.200947,0.511988 -0.338487,0.580461 -1.165935,0.580461 -1.350724,0 -1.754668,-0.278796 -1.754668,-1.211048 0,-0.911471 1.111688,-7.234222 1.698351,-9.6594 0.224665,-0.928737 0.49524,-2.25852 0.601279,-2.955073 0.106036,-0.696553 0.439366,-2.382878 0.740733,-3.747387 0.682367,-3.08958 0.689824,-3.793888 0.04931,-4.656993 -0.27425,-0.369553 -0.559079,-0.909377 -0.632952,-1.199608 -0.116896,-0.459254 0.701742,-5.650218 1.664382,-10.553832 0.605178,-3.082718 0.814625,-5.859632 0.789315,-10.464881 C 87.696881,38.785153 86.758202,34.061863 84.083185,28.422406 82.665324,25.43328 81.670978,23.723344 80.3124,21.937946 78.983425,20.191453 75.21302,16.320618 74.1242,15.584917 73.63057,15.251377 72.862861,14.693875 72.418182,14.346023 71.431384,13.574097 70.022538,12.739321 68.477465,12.011051 67.838958,11.710091 67.132457,11.362711 66.907462,11.239095 66.28173,10.895308 62.432304,9.6654613 60.773163,9.2792593 55.630515,8.0821923 46.395168,7.9769505 41.037496,9.0543605 34.710273,10.326744 29.41634,12.759362 24.702917,16.560268 c -2.169215,1.749256 -5.478314,5.699804 -6.714562,8.016136 -0.278817,0.522414 -0.668055,1.193807 -0.864973,1.491982 -0.59075,0.894522 -2.015642,4.326122 -2.878435,6.932201 -0.797041,2.407475 -1.19773,4.32457 -1.717159,8.215736 -0.312563,2.34148 -0.148465,12.644925 0.237932,14.939392 0.610894,3.627555 1.286919,7.109036 1.675227,8.627306 0.598009,2.338193 0.557125,2.856106 -0.315724,3.999601 -0.406323,0.53231 -0.738768,1.153667 -0.738768,1.380789 0,0.426158 1.045511,5.471059 1.597798,7.709847 0.493842,2.001873 2.202672,11.537203 2.202099,12.28779 -6.33e-4,0.831502 -0.452212,1.115578 -1.773366,1.115578 -0.697188,0 -1.00811,-0.100084 -1.14753,-0.369384 z"
     id="path37" /><path
     style="fill:#b3b3b3;stroke-width:0.211077"
     d="M 30.514303,99.282774 C 29.529874,98.888487 28.73491,98.159667 28.364404,97.311761 27.942335,96.345849 26.955094,92.051881 24.890286,82.201214 24.12386,78.544798 23.362227,74.98288 23.197767,74.28584 c -0.652855,-2.767023 -1.7904,-9.705982 -1.7904,-10.921336 0,-1.243471 0.032,-1.319484 0.909498,-2.160273 0.500224,-0.479298 1.374957,-1.090243 1.94385,-1.357654 0.92328,-0.433993 1.273268,-0.477148 3.259266,-0.401878 2.470493,0.09363 3.264106,0.376645 4.015598,1.432019 0.619351,0.869799 1.968182,6.290147 3.467898,13.935929 0.644186,3.28416 1.071891,5.30456 2.144809,10.131679 0.167724,0.754599 0.496609,2.511812 0.730855,3.904918 0.234247,1.393106 0.621059,3.515539 0.859583,4.716517 0.358599,1.805564 0.389313,2.290705 0.177411,2.802283 -0.404303,0.976073 -2.204916,2.45941 -3.42545,2.821869 -1.182031,0.351027 -4.191602,0.407186 -4.976382,0.09286 z"
     id="path39" /><path
     style="fill:#b3b3b3;stroke-width:0.211077"
     d=""
     id="path41" /><path
     style="fill:#b3b3b3;stroke-width:0.211077"
     d="m 21.015876,93.529876 c -0.127659,-0.153818 -0.422112,-1.079917 -0.654342,-2.057998 -1.22037,-5.139827 -4.231083,-19.791841 -4.231083,-20.5911 0,-0.274358 2.110156,-0.819903 4.055916,-1.048589 l 1.180337,-0.138725 0.355766,1.662516 c 0.195672,0.914383 0.543532,2.469884 0.773023,3.456667 0.229491,0.986783 0.551781,2.554027 0.7162,3.482765 0.16442,0.928737 0.496343,2.543473 0.737608,3.588303 0.805863,3.489891 2.046511,10.551623 1.885307,10.731112 -0.118457,0.131893 -4.144364,1.194719 -4.525511,1.194719 -0.03361,0 -0.165563,-0.125853 -0.293221,-0.27967 z"
     id="path43" /><path
     style="fill:#b3b3b3;stroke-width:0.211077"
     d="M 14.870203,91.080829 C 14.456034,90.972087 14.268096,90.684955 13.956911,89.685501 13.548805,88.374759 10.045956,72.117276 7.9597325,61.851287 l -1.2050771,-5.93 -0.00856,-9.181835 -0.00856,-9.181834 0.5942341,-2.494342 C 9.3685867,26.513606 12.891989,19.880556 18.433699,14.163133 22.285303,10.189405 25.786688,7.6406119 30.79565,5.1643921 35.570412,2.8039512 39.874525,1.5408569 45.244777,0.92411985 48.369522,0.56526411 54.636261,0.7721176 57.620917,1.3326333 c 8.883237,1.6682647 16.661386,5.5497338 22.61779,11.2867787 6.75108,6.502457 10.548243,13.95155 12.766009,25.043744 0.443744,2.219397 0.482884,2.94282 0.456799,8.443066 -0.04012,8.460809 -0.36485,11.36868 -2.19213,19.630129 -0.449355,2.031613 -1.729856,7.951656 -2.845558,13.155654 -2.412904,11.254559 -2.642737,12.084871 -3.384384,12.226647 -0.853332,0.163124 -1.831797,-0.123949 -1.993262,-0.584805 -0.214167,-0.611278 0.257319,-3.52197 1.905711,-11.764794 0.806896,-4.034908 1.467084,-7.722389 1.467084,-8.194403 0,-0.548833 -0.202855,-1.204353 -0.562717,-1.818415 l -0.56272,-0.960207 0.364105,-2.43575 c 0.200259,-1.339664 0.692775,-4.248942 1.094481,-6.465063 0.899691,-4.963387 1.230974,-9.298146 1.049986,-13.738838 C 87.566604,39.378015 86.991028,35.745911 85.746885,32.187125 84.903592,29.774943 82.693256,25.290801 81.319096,23.204405 79.810749,20.91427 75.203319,16.22807 72.69896,14.436897 68.952888,11.757623 63.62959,9.6118232 58.797142,8.8331308 53.812847,8.0299702 45.27711,8.1252909 40.821911,9.0338649 28.090384,11.630278 19.212682,19.13117 14.893253,30.941344 c -2.006928,5.487339 -2.562248,8.99306 -2.562005,16.173882 2.11e-4,6.477763 0.208768,8.721242 1.308068,14.071638 1.202759,5.853943 1.220836,6.217311 0.376845,7.575009 -0.836428,1.345531 -0.82544,1.506173 0.519133,7.589257 0.815196,3.688087 2.063485,10.305775 2.50339,13.271489 0.06652,0.448478 0.01069,0.903055 -0.132913,1.082067 -0.300109,0.374117 -1.323226,0.563174 -2.035568,0.376143 z"
     id="path45" /></svg>
