<?xml version="1.0" encoding="UTF-8" standalone="no"?>
<svg
   xmlns:dc="http://purl.org/dc/elements/1.1/"
   xmlns:cc="http://creativecommons.org/ns#"
   xmlns:rdf="http://www.w3.org/1999/02/22-rdf-syntax-ns#"
   xmlns:svg="http://www.w3.org/2000/svg"
   xmlns="http://www.w3.org/2000/svg"
   xmlns:sodipodi="http://sodipodi.sourceforge.net/DTD/sodipodi-0.dtd"
   xmlns:inkscape="http://www.inkscape.org/namespaces/inkscape"
   height="100px"
   width="100px"
   fill="#000000"
   version="1.1"
   x="0px"
   y="0px"
   viewBox="0 0 100 100"
   enable-background="new 0 0 100 100"
   xml:space="preserve"
   id="svg16"
   sodipodi:docname="noun_Headphones_7213.svg"
   inkscape:version="1.0.1 (3bc2e813f5, 2020-09-07)"><metadata
     id="metadata22"><rdf:RDF><cc:Work
         rdf:about=""><dc:format>image/svg+xml</dc:format><dc:type
           rdf:resource="http://purl.org/dc/dcmitype/StillImage" /><dc:title></dc:title></cc:Work></rdf:RDF></metadata><defs
     id="defs20" /><sodipodi:namedview
     pagecolor="#ffffff"
     bordercolor="#666666"
     borderopacity="1"
     objecttolerance="10"
     gridtolerance="10"
     guidetolerance="10"
     inkscape:pageopacity="0"
     inkscape:pageshadow="2"
     inkscape:window-width="1600"
     inkscape:window-height="837"
     id="namedview18"
     showgrid="false"
     inkscape:zoom="4.7376154"
     inkscape:cx="43.570416"
     inkscape:cy="54.760365"
     inkscape:window-x="-8"
     inkscape:window-y="-8"
     inkscape:window-maximized="1"
     inkscape:current-layer="svg16" /><path
     d="M15.281,66.527c-3.912-14.854-4.723-30.193,4.221-43.656C25.92,13.211,37.953,8.5,50.002,8.5  c12.957,0,23.095,4.306,29.938,13.516c9.817,13.212,8.66,29.667,4.718,44.511c-1.049,3.947,5.48,5.623,6.532,1.679  c4.446-16.748,5.107-35.397-5.4-50.375C78.008,6.744,64.612,0.327,50.527,0.011c-14.232-0.32-27.35,6.45-35.649,16.987  C3.384,31.587,4.354,51.523,8.751,68.206C9.79,72.154,16.323,70.479,15.281,66.527L15.281,66.527z"
     id="path2" /><polygon
     points="73.271,93.17 79.555,94.307 84.588,70.202 78.301,69.063 "
     id="polygon4" /><path
     d="M60.373,94.832c-0.48,2.3,1.84,4.65,5.178,5.258l0,0c3.338,0.604,6.435-0.77,6.916-3.07l6.876-32.961  c0.484-2.301-1.838-4.656-5.174-5.262l0,0c-3.338-0.604-6.437,0.771-6.912,3.071L60.373,94.832z"
     id="path6" /><path
     d="M82.131,89.794c-0.188,0.901,0.304,1.743,1.097,1.886l1.481,0.27c0.792,0.145,1.588-0.467,1.775-1.363l4.413-21.138  c0.187-0.899-0.305-1.739-1.098-1.886l-1.479-0.271c-0.795-0.144-1.592,0.472-1.779,1.366L82.131,89.794z"
     id="path8" /><polygon
     points="26.713,93.168 20.429,94.307 15.397,70.202 21.683,69.063 "
     id="polygon10" /><path
     d="M39.608,94.83c0.481,2.302-1.837,4.65-5.174,5.26l0,0c-3.338,0.604-6.438-0.77-6.917-3.07l-6.879-32.961  c-0.479-2.301,1.837-4.656,5.175-5.262l0,0c3.34-0.604,6.437,0.771,6.917,3.071L39.608,94.83z"
     id="path12" /><path
     d="M17.853,89.794c0.185,0.899-0.306,1.743-1.099,1.883l-1.479,0.271c-0.793,0.145-1.59-0.467-1.777-1.361L9.085,69.445  c-0.188-0.896,0.306-1.738,1.1-1.885l1.478-0.269c0.796-0.146,1.591,0.467,1.777,1.364L17.853,89.794z"
     id="path14" /><path
     style="fill:#999999;stroke-width:0.211077"
     d="m 14.132888,91.409017 c -0.294446,-0.294446 -0.535356,-0.620555 -0.535356,-0.724687 0,-0.454256 -4.4939214,-21.700502 -5.0536667,-23.892596 C 4.8719921,52.41181 4.9398305,38.745604 8.7345602,28.375783 10.149335,24.509644 12.531614,20.242158 15.156367,16.872106 16.651008,14.953062 20.00711,11.618448 22.251675,9.8222279 31.181203,2.6763429 42.633257,-0.78526505 53.732501,0.30653229 70.286289,1.9348761 83.487023,11.041923 89.804038,25.191907 c 5.05932,11.332771 5.654412,24.960019 1.784372,40.861059 -0.395566,1.62529 -1.730406,7.799282 -2.96631,13.719982 -1.235905,5.9207 -2.381409,11.02474 -2.545566,11.342311 -0.378473,0.732185 -0.969131,0.869951 -2.288826,0.533856 -1.917182,-0.488263 -1.940586,0.07522 0.475971,-11.459882 l 2.121316,-10.125811 -0.457931,-0.392755 c -0.739397,-0.634158 -1.193819,-1.459217 -1.19531,-2.170226 -8.44e-4,-0.36481 0.277281,-1.83707 0.617879,-3.271688 C 90.136458,44.066373 87.308755,28.841408 76.825509,18.333025 71.352524,12.846918 64.908453,9.8578959 56.129477,8.7333666 53.264542,8.3663871 46.441449,8.424267 43.675955,8.8390094 30.726126,10.7811 21.756924,17.017044 16.661554,27.621094 c -2.987091,6.216479 -4.189295,11.844192 -4.196831,19.64605 -0.0056,5.75541 0.541177,10.109725 2.109912,16.803746 0.868452,3.705816 0.849551,4.102554 -0.247717,5.199823 l -0.723266,0.723267 2.121835,10.156983 c 2.257735,10.807519 2.268646,10.910472 1.199096,11.31454 -0.262634,0.09922 -0.877752,0.247559 -1.366928,0.329636 -0.778282,0.130587 -0.956303,0.08234 -1.424767,-0.386122 z"
     id="path24" /><path
     style="fill:#999999;stroke-width:0.211077"
     d="m 31.222432,99.949246 c -1.523382,-0.423897 -2.812688,-1.271596 -3.289721,-2.162941 -0.322257,-0.60214 -7.158573,-33.483835 -7.158573,-34.4317 0,-1.517563 1.196907,-2.9223 3.316929,-3.892878 2.938744,-1.345402 7.06645,-0.53548 8.17261,1.603596 0.516171,0.998166 7.353227,34.168654 7.205312,34.957112 -0.381607,2.034137 -3.132785,3.863224 -6.045222,4.019095 -0.862458,0.0462 -1.853058,0.005 -2.201335,-0.09228 z"
     id="path26" /><path
     style="fill:#999999;stroke-width:0.211077"
     d="m 20.469992,93.833348 c -0.139715,-0.461179 -4.700325,-22.367673 -4.793397,-23.024665 -0.07257,-0.512278 -0.02235,-0.530615 2.934007,-1.071385 1.654314,-0.302602 3.007843,-0.526923 3.007843,-0.49849 0,0.02843 1.092321,5.291211 2.427381,11.695062 1.33506,6.40385 2.427382,11.766018 2.427382,11.915927 0,0.151356 -0.351993,0.329817 -0.791538,0.401309 -0.435345,0.07081 -1.762865,0.307376 -2.950043,0.525703 -1.970318,0.362347 -2.167496,0.367278 -2.261635,0.05654 z"
     id="path28" /><path
     style="fill:#999999;stroke-width:0.211077"
     d="m 64.896104,99.803939 c -2.341711,-0.629323 -4.439556,-2.609151 -4.439556,-4.189804 0,-1.01458 6.914144,-33.809835 7.275278,-34.50819 1.039631,-2.010425 4.285936,-2.857775 7.337516,-1.915238 2.372585,0.732817 3.937021,2.207835 4.108525,3.873696 0.13309,1.292745 -6.767754,34.186652 -7.34092,34.991589 -0.600471,0.843285 -1.395518,1.355078 -2.711797,1.745661 -1.393258,0.413427 -2.696575,0.414127 -4.229046,0.0023 z"
     id="path30" /><path
     style="fill:#666666;stroke-width:0.211077"
     d="M 76.377039,93.61504 73.40617,93.070777 75.673336,82.200329 c 1.246942,-5.978746 2.372801,-11.350662 2.501908,-11.937592 l 0.234741,-1.067144 2.949112,0.52724 c 2.470632,0.441697 2.949113,0.58733 2.949113,0.897609 0,0.487634 -4.622447,22.773844 -4.813157,23.205675 -0.131767,0.298367 -0.457618,0.276308 -3.118014,-0.211077 z"
     id="path32" /><path
     style="fill:#666666;stroke-width:0.211077"
     d="M 64.746507,99.626925 C 63.503799,99.238352 62.548818,98.603828 61.509103,97.475871 L 60.610777,96.5013 60.731281,95.102654 c 0.14572,-1.69133 5.990287,-29.780309 6.897559,-33.149661 0.288527,-1.071507 0.911682,-1.827001 1.976726,-2.396523 0.740195,-0.395813 1.20996,-0.469034 3.009171,-0.469034 2.022081,0 2.206196,0.0381 3.569642,0.738768 0.843873,0.43366 1.706823,1.074329 2.089485,1.55127 0.590898,0.736481 0.649408,0.943847 0.62535,2.216305 -0.02771,1.465758 -1.977417,11.426556 -4.509633,23.03916 -2.466359,11.310587 -2.460472,11.289065 -3.2865,12.014327 -1.332113,1.169609 -4.290782,1.625594 -6.356574,0.979659 z"
     id="path34" /><path
     style="fill:#666666;stroke-width:0.211077"
     d="M 14.1411,91.294168 C 13.892444,91.019407 13.277241,88.496117 12.224119,83.431563 10.279346,74.078986 9.5708697,70.781346 8.535787,66.264042 6.4902551,57.336937 6.1042352,54.20175 6.1058342,46.528375 6.1072081,39.935669 6.311485,37.934888 7.4793132,33.075907 9.9540988,22.779069 16.399676,13.692228 25.509509,7.6573129 36.153575,0.60602603 48.617094,-1.4455434 61.287118,1.7681051 73.818165,4.9465031 83.817351,12.998556 89.160689,24.213875 c 2.151958,4.516823 3.432379,8.772175 4.250275,14.125389 0.372124,2.435588 0.464052,3.994974 0.476544,8.083573 0.02096,6.862005 -0.531345,11.385874 -2.383718,19.52459 -0.462395,2.031613 -1.66004,7.540714 -2.661434,12.242446 -2.631315,12.354536 -2.80406,13.049704 -3.310058,13.320505 -0.511835,0.273927 -2.057157,0.08088 -2.614416,-0.326593 -0.595658,-0.435556 -0.457621,-1.651277 0.976905,-8.603672 0.701832,-3.401415 1.577211,-7.641502 1.945286,-9.422415 0.60887,-2.945976 0.638079,-3.255454 0.32386,-3.4313 -0.573871,-0.321155 -1.222493,-1.566396 -1.222493,-2.346974 0,-0.403965 0.373722,-2.482411 0.830494,-4.618773 2.211564,-10.343684 2.502805,-18.17572 0.961215,-25.848816 C 86.006906,33.297036 85.153532,30.815781 83.470675,27.425939 81.652482,23.763484 79.480326,20.827612 76.357181,17.811391 71.185083,12.816368 65.762135,10.218164 57.597948,8.8236042 54.662798,8.3222389 46.046611,8.3255334 43.05179,8.8291661 29.369236,11.130132 20.570399,17.859155 15.564652,29.850304 c -2.203567,5.278592 -3.066273,9.914072 -3.103943,16.678071 -0.03836,6.888113 0.302873,9.985754 1.871325,16.987411 0.408669,1.824321 0.743034,3.55143 0.743034,3.838018 0,0.649548 -0.313417,1.271356 -1.025386,2.034329 l -0.551652,0.591169 0.798983,3.841441 c 3.078785,14.802522 3.381993,16.487646 3.072748,17.077264 -0.200476,0.38223 -1.40303,0.797635 -2.314747,0.799594 -0.301261,6.33e-4 -0.712522,-0.180897 -0.913914,-0.403433 z"
     id="path36" /><path
     style="fill:#666666;stroke-width:0.211077"
     d="M 30.158379,99.400178 C 28.246456,98.4745 28.09069,98.186728 27.132273,93.809545 24.5641,82.080459 20.985215,64.35663 20.985215,63.36727 c 0,-1.490389 0.920963,-2.631455 2.955073,-3.661315 0.924733,-0.468187 1.52594,-0.605752 2.955073,-0.676161 2.981485,-0.146888 4.920187,0.864995 5.481415,2.860963 0.612995,2.180067 5.100869,23.676693 6.352512,30.42811 l 0.682363,3.680702 -0.478268,0.901544 c -1.326492,2.500463 -6.014522,3.835587 -8.775004,2.499065 z"
     id="path38" /><path
     style="fill:#666666;stroke-width:0.211077"
     d="M 20.585814,93.550567 C 20.485946,93.286683 19.489461,88.653998 18.371403,83.255713 17.253345,77.857427 16.204055,72.823249 16.039647,72.06865 15.87524,71.314051 15.812896,70.621934 15.901105,70.530612 c 0.138422,-0.143306 2.4097,-0.644703 4.880804,-1.077464 l 0.746538,-0.13074 2.256526,10.92434 c 1.241089,6.008386 2.316747,11.318265 2.390351,11.799729 0.155733,1.01869 0.284256,0.945991 -2.551651,1.443353 -1.04483,0.183242 -2.114923,0.379824 -2.377986,0.436848 -0.356921,0.07737 -0.524374,-0.01807 -0.659873,-0.376111 z"
     id="path40"
     inkscape:export-filename="D:\Images\InkscapeProjects\Exports\nounHeadphonesLighter.png"
     inkscape:export-xdpi="96"
     inkscape:export-ydpi="96" /></svg>
