<?xml version="1.0" encoding="UTF-8" standalone="no"?>
<svg
   xmlns:dc="http://purl.org/dc/elements/1.1/"
   xmlns:cc="http://creativecommons.org/ns#"
   xmlns:rdf="http://www.w3.org/1999/02/22-rdf-syntax-ns#"
   xmlns:svg="http://www.w3.org/2000/svg"
   xmlns="http://www.w3.org/2000/svg"
   xmlns:sodipodi="http://sodipodi.sourceforge.net/DTD/sodipodi-0.dtd"
   xmlns:inkscape="http://www.inkscape.org/namespaces/inkscape"
   width="234.34525mm"
   height="234.34525mm"
   viewBox="0 0 234.34525 234.34525"
   version="1.1"
   id="svg856"
   sodipodi:docname="Encodarr-Info-I.svg"
   inkscape:export-filename="I:\Images\InkscapeProjects\Exports\Encodarr-Info-I.png"
   inkscape:export-xdpi="151.38499"
   inkscape:export-ydpi="151.38499"
   inkscape:version="1.0.1 (3bc2e813f5, 2020-09-07)">
  <defs
     id="defs850" />
  <sodipodi:namedview
     id="base"
     pagecolor="#ffffff"
     bordercolor="#666666"
     borderopacity="1.0"
     inkscape:pageopacity="0.0"
     inkscape:pageshadow="2"
     inkscape:zoom="0.49497475"
     inkscape:cx="81.219893"
     inkscape:cy="382.24286"
     inkscape:document-units="mm"
     inkscape:current-layer="layer2"
     inkscape:document-rotation="0"
     showgrid="false"
     fit-margin-top="0"
     fit-margin-left="0"
     fit-margin-right="0"
     fit-margin-bottom="0"
     inkscape:window-width="1600"
     inkscape:window-height="837"
     inkscape:window-x="-8"
     inkscape:window-y="-8"
     inkscape:window-maximized="1"
     showguides="true" />
  <metadata
     id="metadata853">
    <rdf:RDF>
      <cc:Work
         rdf:about="">
        <dc:format>image/svg+xml</dc:format>
        <dc:type
           rdf:resource="http://purl.org/dc/dcmitype/StillImage" />
        <dc:title></dc:title>
      </cc:Work>
    </rdf:RDF>
  </metadata>
  <g
     inkscape:groupmode="layer"
     id="layer2"
     inkscape:label="Layer 2"
     transform="translate(12.352386,-26.499008)">
    <path
       id="path866"
       style="fill:#ffffff;fill-opacity:1;stroke-width:12.7181;stop-color:#000000"
       d="M 442.66992 0 A 442.85715 442.85715 0 0 0 0 442.85742 A 442.85715 442.85715 0 0 0 442.85742 885.71484 A 442.85715 442.85715 0 0 0 885.71484 442.85742 A 442.85715 442.85715 0 0 0 442.85742 0 A 442.85715 442.85715 0 0 0 442.66992 0 z M 439.72266 68.572266 A 371.42858 372.09211 0 0 1 440 68.572266 A 371.42858 372.09211 0 0 1 811.42773 440.66406 A 371.42858 372.09211 0 0 1 440 812.75586 A 371.42858 372.09211 0 0 1 68.572266 440.66406 A 371.42858 372.09211 0 0 1 439.72266 68.572266 z "
       transform="matrix(0.26458333,0,0,0.26458333,-12.352386,26.499008)" />
  </g>
  <g
     inkscape:label="Layer 1"
     inkscape:groupmode="layer"
     id="layer1"
     transform="translate(12.352386,-26.499008)">
    <rect
       style="fill:#ffffff;stroke-width:2.65864;stop-color:#000000"
       id="rect858"
       width="44.197662"
       height="111.68869"
       x="80.087845"
       y="107.33453"
       ry="0" />
    <circle
       style="fill:#ffffff;stroke-width:2.37377;stop-color:#000000"
       id="path860"
       cx="102.4853"
       cy="79.561668"
       r="22.397465" />
  </g>
</svg>
