<?xml version="1.0" standalone="no"?>
<!DOCTYPE svg PUBLIC "-//W3C//DTD SVG 20010904//EN"
 "http://www.w3.org/TR/2001/REC-SVG-20010904/DTD/svg10.dtd">
<svg version="1.0" xmlns="http://www.w3.org/2000/svg"
 width="1016.000000pt" height="1016.000000pt" viewBox="0 0 1016.000000 1016.000000"
 preserveAspectRatio="xMidYMid meet">
<metadata>
Created by potrace 1.11, written by Peter Selinger 2001-2013
</metadata>
<g transform="translate(0.000000,1016.000000) scale(0.100000,-0.100000)"
fill="#000000" stroke="none">
<path d="M2277 10084 c-1 -2 -27 -5 -57 -8 -60 -5 -169 -36 -240 -69 -245
-113 -429 -368 -457 -632 -9 -76 -8 -8532 0 -8595 18 -131 77 -279 152 -379
39 -52 152 -156 212 -195 189 -122 433 -162 638 -104 22 6 49 13 59 15 34 6
172 80 227 121 96 72 187 179 240 284 16 32 27 58 24 58 -3 0 1 10 9 23 8 12
22 56 32 97 17 71 18 284 19 4350 0 2368 -3 4303 -8 4340 -22 167 -105 330
-231 456 -81 80 -194 157 -265 178 -20 5 -38 13 -41 16 -17 20 -298 59 -313
44z"/>
<path d="M4535 10082 c-2 -2 -21 -5 -42 -7 -21 -2 -38 -4 -38 -5 0 -1 -11 -3
-25 -4 -14 -2 -32 -5 -40 -9 -8 -4 -26 -8 -40 -11 -58 -10 -201 -81 -273 -135
-56 -42 -157 -136 -157 -146 0 -3 -11 -18 -26 -33 -58 -62 -151 -268 -168
-372 -3 -19 -8 -46 -11 -60 -7 -32 -7 -196 0 -232 3 -16 7 -38 9 -50 22 -130
90 -281 174 -388 45 -58 162 -168 185 -176 9 -3 17 -9 17 -13 0 -6 145 -82
195 -102 24 -9 68 -22 75 -22 3 0 15 -3 27 -8 13 -5 44 -12 70 -16 58 -9 3337
-10 3408 -1 28 4 76 14 109 22 68 19 236 95 236 107 0 5 5 9 11 9 31 0 196
156 245 230 16 25 31 47 35 50 11 9 73 143 76 163 2 11 7 25 12 31 8 11 25 77
36 146 9 51 9 197 1 255 -47 329 -269 608 -577 723 -156 58 -64 55 -1867 56
-910 1 -1655 0 -1657 -2z"/>
<path d="M4486 5683 c-2 -2 -30 -6 -65 -9 -34 -3 -92 -14 -129 -25 -37 -11
-77 -23 -89 -26 -13 -3 -23 -9 -23 -13 0 -5 -13 -11 -29 -15 -16 -3 -35 -13
-42 -21 -6 -8 -18 -14 -25 -14 -8 0 -14 -4 -14 -9 0 -5 -9 -13 -20 -16 -19 -6
-147 -127 -181 -171 -41 -53 -93 -156 -122 -239 -29 -85 -31 -99 -31 -235 0
-80 4 -158 8 -174 21 -84 79 -231 97 -246 3 -3 12 -16 18 -28 17 -33 47 -68
112 -134 80 -80 148 -123 304 -189 11 -5 35 -11 54 -14 19 -3 38 -8 42 -11 7
-4 105 -12 207 -17 24 -2 45 0 48 4 2 3 21 3 43 -1 22 -4 45 -4 52 1 7 4 17 5
23 2 11 -7 215 -7 222 0 3 3 18 2 32 -3 15 -4 37 -3 50 1 12 5 22 5 22 1 0 -8
188 -8 196 0 2 3 22 2 44 -2 21 -4 44 -4 51 1 7 4 17 5 23 2 11 -7 215 -7 222
0 3 3 18 2 32 -3 15 -4 37 -3 50 1 12 5 22 5 22 1 0 -8 188 -8 196 0 2 3 22 2
44 -2 21 -4 44 -4 51 1 7 4 17 5 23 2 11 -7 215 -7 222 0 3 3 18 2 32 -3 15
-4 37 -3 50 1 12 5 22 5 22 1 0 -8 138 -7 146 1 4 3 16 2 29 -3 13 -5 25 -7
26 -5 2 2 31 6 64 10 33 3 78 11 100 17 22 5 47 12 55 13 8 2 16 4 18 5 1 2 5
3 10 4 4 1 16 7 27 13 11 6 22 11 25 11 12 -2 100 48 150 84 247 180 374 502
314 793 -8 39 -16 77 -17 85 -4 20 -24 71 -37 92 -6 10 -10 22 -10 28 0 22
-98 158 -155 215 -60 60 -145 125 -163 125 -6 0 -12 4 -14 8 -5 12 -118 59
-183 76 -33 8 -91 18 -130 21 -107 10 -985 11 -985 2 0 -5 -5 -5 -10 -2 -8 5
-118 7 -230 4 -8 0 -62 0 -120 0 -58 1 -112 1 -120 0 -28 0 -235 1 -265 1 -85
3 -367 5 -369 3z"/>
<path d="M4505 1872 c-71 -8 -201 -44 -269 -76 -208 -96 -377 -272 -460 -480
-15 -38 -30 -78 -32 -90 -3 -11 -7 -31 -10 -43 -2 -12 -8 -33 -13 -45 -9 -25
-8 -282 2 -336 17 -93 87 -254 148 -341 26 -37 74 -94 108 -127 65 -63 210
-166 223 -158 4 3 8 1 8 -3 0 -14 146 -66 214 -77 20 -3 53 -9 74 -13 49 -8
3270 -9 3342 0 30 4 66 9 80 13 14 3 34 7 45 9 11 1 37 10 58 18 20 9 37 14
37 13 0 -6 168 82 180 94 3 3 22 18 43 34 102 76 211 211 266 331 27 58 62
155 56 155 -3 0 0 11 5 24 11 29 21 111 24 194 2 56 -19 197 -42 287 -19 71
-102 220 -166 296 -63 76 -170 170 -218 191 -16 7 -28 16 -28 20 0 5 -4 8 -9
8 -5 0 -35 12 -67 27 -33 15 -63 28 -69 30 -5 1 -36 9 -69 18 -32 9 -73 19
-90 22 -32 6 -3317 11 -3371 5z"/>
</g>
</svg>
